<?xml version="1.0" encoding="UTF-8"?>
<svg xmlns="http://www.w3.org/2000/svg" xmlns:xlink="http://www.w3.org/1999/xlink" width="3873" height="3873" viewBox="0 0 3873 3873">
<defs>
<clipPath id="clip-0">
<path clip-rule="evenodd" d="M 1936.5 0 C 3006 0 3873 867 3873 1936.5 C 3873 3006 3006 3873 1936.5 3873 C 867 3873 0 3006 0 1936.5 C 0 867 867 0 1936.5 0 "/>
</clipPath>
<linearGradient id="linear-pattern-0" gradientUnits="userSpaceOnUse" x1="-0.500008" y1="0" x2="1.500007" y2="0" gradientTransform="matrix(2072.1, -1778.48, 1778.48, 2072.1, 900.452, 2825.74)">
<stop offset="0" stop-color="rgb(0%, 100%, 100%)" stop-opacity="1"/>
<stop offset="0.25" stop-color="rgb(0%, 100%, 100%)" stop-opacity="1"/>
<stop offset="0.253906" stop-color="rgb(0.907898%, 98.976135%, 99.487305%)" stop-opacity="1"/>
<stop offset="0.257812" stop-color="rgb(1.817322%, 97.953796%, 98.976135%)" stop-opacity="1"/>
<stop offset="0.261719" stop-color="rgb(2.72522%, 96.931458%, 98.464966%)" stop-opacity="1"/>
<stop offset="0.265625" stop-color="rgb(3.634644%, 95.909119%, 97.953796%)" stop-opacity="1"/>
<stop offset="0.269531" stop-color="rgb(4.544067%, 94.88678%, 97.442627%)" stop-opacity="1"/>
<stop offset="0.273437" stop-color="rgb(5.453491%, 93.864441%, 96.931458%)" stop-opacity="1"/>
<stop offset="0.277344" stop-color="rgb(6.361389%, 92.840576%, 96.420288%)" stop-opacity="1"/>
<stop offset="0.28125" stop-color="rgb(7.270813%, 91.818237%, 95.909119%)" stop-opacity="1"/>
<stop offset="0.285156" stop-color="rgb(8.180237%, 90.795898%, 95.397949%)" stop-opacity="1"/>
<stop offset="0.289062" stop-color="rgb(9.089661%, 89.77356%, 94.88678%)" stop-opacity="1"/>
<stop offset="0.292969" stop-color="rgb(9.997559%, 88.749695%, 94.374084%)" stop-opacity="1"/>
<stop offset="0.296875" stop-color="rgb(10.906982%, 87.727356%, 93.862915%)" stop-opacity="1"/>
<stop offset="0.300781" stop-color="rgb(11.816406%, 86.705017%, 93.351746%)" stop-opacity="1"/>
<stop offset="0.304688" stop-color="rgb(12.72583%, 85.682678%, 92.840576%)" stop-opacity="1"/>
<stop offset="0.308594" stop-color="rgb(13.633728%, 84.658813%, 92.329407%)" stop-opacity="1"/>
<stop offset="0.3125" stop-color="rgb(14.543152%, 83.636475%, 91.818237%)" stop-opacity="1"/>
<stop offset="0.316406" stop-color="rgb(15.452576%, 82.614136%, 91.307068%)" stop-opacity="1"/>
<stop offset="0.320312" stop-color="rgb(16.362%, 81.591797%, 90.795898%)" stop-opacity="1"/>
<stop offset="0.324219" stop-color="rgb(17.269897%, 80.569458%, 90.284729%)" stop-opacity="1"/>
<stop offset="0.328125" stop-color="rgb(18.179321%, 79.547119%, 89.77356%)" stop-opacity="1"/>
<stop offset="0.332031" stop-color="rgb(19.088745%, 78.523254%, 89.260864%)" stop-opacity="1"/>
<stop offset="0.335938" stop-color="rgb(19.998169%, 77.500916%, 88.749695%)" stop-opacity="1"/>
<stop offset="0.339844" stop-color="rgb(20.906067%, 76.478577%, 88.238525%)" stop-opacity="1"/>
<stop offset="0.34375" stop-color="rgb(21.815491%, 75.456238%, 87.727356%)" stop-opacity="1"/>
<stop offset="0.347656" stop-color="rgb(22.724915%, 74.432373%, 87.216187%)" stop-opacity="1"/>
<stop offset="0.351562" stop-color="rgb(23.634338%, 73.410034%, 86.705017%)" stop-opacity="1"/>
<stop offset="0.355469" stop-color="rgb(24.542236%, 72.387695%, 86.193848%)" stop-opacity="1"/>
<stop offset="0.359375" stop-color="rgb(25.45166%, 71.365356%, 85.682678%)" stop-opacity="1"/>
<stop offset="0.363281" stop-color="rgb(26.361084%, 70.341492%, 85.169983%)" stop-opacity="1"/>
<stop offset="0.367187" stop-color="rgb(27.270508%, 69.319153%, 84.658813%)" stop-opacity="1"/>
<stop offset="0.371094" stop-color="rgb(28.178406%, 68.296814%, 84.147644%)" stop-opacity="1"/>
<stop offset="0.375" stop-color="rgb(29.08783%, 67.274475%, 83.636475%)" stop-opacity="1"/>
<stop offset="0.378906" stop-color="rgb(29.997253%, 66.25061%, 83.125305%)" stop-opacity="1"/>
<stop offset="0.382812" stop-color="rgb(30.906677%, 65.228271%, 82.614136%)" stop-opacity="1"/>
<stop offset="0.386719" stop-color="rgb(31.814575%, 64.205933%, 82.102966%)" stop-opacity="1"/>
<stop offset="0.390625" stop-color="rgb(32.723999%, 63.183594%, 81.591797%)" stop-opacity="1"/>
<stop offset="0.394531" stop-color="rgb(33.633423%, 62.161255%, 81.080627%)" stop-opacity="1"/>
<stop offset="0.398438" stop-color="rgb(34.542847%, 61.138916%, 80.569458%)" stop-opacity="1"/>
<stop offset="0.402344" stop-color="rgb(35.450745%, 60.115051%, 80.056763%)" stop-opacity="1"/>
<stop offset="0.40625" stop-color="rgb(36.360168%, 59.092712%, 79.545593%)" stop-opacity="1"/>
<stop offset="0.410156" stop-color="rgb(37.269592%, 58.070374%, 79.034424%)" stop-opacity="1"/>
<stop offset="0.414062" stop-color="rgb(38.179016%, 57.048035%, 78.523254%)" stop-opacity="1"/>
<stop offset="0.417969" stop-color="rgb(39.086914%, 56.02417%, 78.012085%)" stop-opacity="1"/>
<stop offset="0.421875" stop-color="rgb(39.996338%, 55.001831%, 77.500916%)" stop-opacity="1"/>
<stop offset="0.425781" stop-color="rgb(40.905762%, 53.979492%, 76.989746%)" stop-opacity="1"/>
<stop offset="0.429688" stop-color="rgb(41.815186%, 52.957153%, 76.478577%)" stop-opacity="1"/>
<stop offset="0.433594" stop-color="rgb(42.723083%, 51.933289%, 75.965881%)" stop-opacity="1"/>
<stop offset="0.4375" stop-color="rgb(43.632507%, 50.91095%, 75.454712%)" stop-opacity="1"/>
<stop offset="0.441406" stop-color="rgb(44.541931%, 49.888611%, 74.943542%)" stop-opacity="1"/>
<stop offset="0.445312" stop-color="rgb(45.451355%, 48.866272%, 74.432373%)" stop-opacity="1"/>
<stop offset="0.449219" stop-color="rgb(46.359253%, 47.843933%, 73.921204%)" stop-opacity="1"/>
<stop offset="0.453125" stop-color="rgb(47.268677%, 46.821594%, 73.410034%)" stop-opacity="1"/>
<stop offset="0.457031" stop-color="rgb(48.178101%, 45.797729%, 72.898865%)" stop-opacity="1"/>
<stop offset="0.460938" stop-color="rgb(49.087524%, 44.775391%, 72.387695%)" stop-opacity="1"/>
<stop offset="0.464844" stop-color="rgb(49.479675%, 44.346619%, 71.905518%)" stop-opacity="1"/>
<stop offset="0.46875" stop-color="rgb(49.871826%, 43.919373%, 71.42334%)" stop-opacity="1"/>
<stop offset="0.472656" stop-color="rgb(49.456787%, 44.419861%, 70.986938%)" stop-opacity="1"/>
<stop offset="0.476562" stop-color="rgb(49.041748%, 44.921875%, 70.550537%)" stop-opacity="1"/>
<stop offset="0.480469" stop-color="rgb(48.626709%, 45.422363%, 70.114136%)" stop-opacity="1"/>
<stop offset="0.484375" stop-color="rgb(48.21167%, 45.924377%, 69.677734%)" stop-opacity="1"/>
<stop offset="0.488281" stop-color="rgb(47.796631%, 46.424866%, 69.241333%)" stop-opacity="1"/>
<stop offset="0.492188" stop-color="rgb(47.381592%, 46.92688%, 68.804932%)" stop-opacity="1"/>
<stop offset="0.496094" stop-color="rgb(46.966553%, 47.427368%, 68.36853%)" stop-opacity="1"/>
<stop offset="0.5" stop-color="rgb(46.55304%, 47.929382%, 67.932129%)" stop-opacity="1"/>
<stop offset="0.503906" stop-color="rgb(46.138%, 48.429871%, 67.495728%)" stop-opacity="1"/>
<stop offset="0.507812" stop-color="rgb(45.722961%, 48.930359%, 67.059326%)" stop-opacity="1"/>
<stop offset="0.511719" stop-color="rgb(45.307922%, 49.430847%, 66.622925%)" stop-opacity="1"/>
<stop offset="0.515625" stop-color="rgb(44.892883%, 49.932861%, 66.186523%)" stop-opacity="1"/>
<stop offset="0.519531" stop-color="rgb(44.477844%, 50.43335%, 65.750122%)" stop-opacity="1"/>
<stop offset="0.523438" stop-color="rgb(44.062805%, 50.935364%, 65.313721%)" stop-opacity="1"/>
<stop offset="0.527344" stop-color="rgb(43.647766%, 51.435852%, 64.875793%)" stop-opacity="1"/>
<stop offset="0.53125" stop-color="rgb(43.232727%, 51.937866%, 64.439392%)" stop-opacity="1"/>
<stop offset="0.535156" stop-color="rgb(42.817688%, 52.438354%, 64.002991%)" stop-opacity="1"/>
<stop offset="0.539062" stop-color="rgb(42.402649%, 52.940369%, 63.566589%)" stop-opacity="1"/>
<stop offset="0.542969" stop-color="rgb(41.98761%, 53.440857%, 63.130188%)" stop-opacity="1"/>
<stop offset="0.546875" stop-color="rgb(41.574097%, 53.941345%, 62.693787%)" stop-opacity="1"/>
<stop offset="0.550781" stop-color="rgb(41.159058%, 54.441833%, 62.257385%)" stop-opacity="1"/>
<stop offset="0.554688" stop-color="rgb(40.744019%, 54.943848%, 61.820984%)" stop-opacity="1"/>
<stop offset="0.558594" stop-color="rgb(40.328979%, 55.444336%, 61.384583%)" stop-opacity="1"/>
<stop offset="0.5625" stop-color="rgb(39.91394%, 55.94635%, 60.948181%)" stop-opacity="1"/>
<stop offset="0.566406" stop-color="rgb(39.498901%, 56.446838%, 60.51178%)" stop-opacity="1"/>
<stop offset="0.570312" stop-color="rgb(39.083862%, 56.948853%, 60.075378%)" stop-opacity="1"/>
<stop offset="0.574219" stop-color="rgb(38.668823%, 57.449341%, 59.638977%)" stop-opacity="1"/>
<stop offset="0.578125" stop-color="rgb(38.253784%, 57.951355%, 59.202576%)" stop-opacity="1"/>
<stop offset="0.582031" stop-color="rgb(37.838745%, 58.451843%, 58.766174%)" stop-opacity="1"/>
<stop offset="0.585938" stop-color="rgb(37.425232%, 58.952332%, 58.329773%)" stop-opacity="1"/>
<stop offset="0.589844" stop-color="rgb(37.010193%, 59.45282%, 57.893372%)" stop-opacity="1"/>
<stop offset="0.59375" stop-color="rgb(36.595154%, 59.954834%, 57.45697%)" stop-opacity="1"/>
<stop offset="0.597656" stop-color="rgb(36.180115%, 60.455322%, 57.020569%)" stop-opacity="1"/>
<stop offset="0.601562" stop-color="rgb(35.765076%, 60.957336%, 56.584167%)" stop-opacity="1"/>
<stop offset="0.605469" stop-color="rgb(35.350037%, 61.457825%, 56.147766%)" stop-opacity="1"/>
<stop offset="0.609375" stop-color="rgb(34.934998%, 61.959839%, 55.711365%)" stop-opacity="1"/>
<stop offset="0.613281" stop-color="rgb(34.519958%, 62.460327%, 55.274963%)" stop-opacity="1"/>
<stop offset="0.617188" stop-color="rgb(34.104919%, 62.962341%, 54.838562%)" stop-opacity="1"/>
<stop offset="0.621094" stop-color="rgb(33.68988%, 63.46283%, 54.402161%)" stop-opacity="1"/>
<stop offset="0.625" stop-color="rgb(33.276367%, 63.963318%, 53.965759%)" stop-opacity="1"/>
<stop offset="0.628906" stop-color="rgb(32.861328%, 64.463806%, 53.529358%)" stop-opacity="1"/>
<stop offset="0.632812" stop-color="rgb(32.446289%, 64.96582%, 53.092957%)" stop-opacity="1"/>
<stop offset="0.636719" stop-color="rgb(32.03125%, 65.466309%, 52.656555%)" stop-opacity="1"/>
<stop offset="0.640625" stop-color="rgb(31.616211%, 65.968323%, 52.220154%)" stop-opacity="1"/>
<stop offset="0.644531" stop-color="rgb(31.201172%, 66.468811%, 51.783752%)" stop-opacity="1"/>
<stop offset="0.648437" stop-color="rgb(30.786133%, 66.970825%, 51.347351%)" stop-opacity="1"/>
<stop offset="0.652344" stop-color="rgb(30.371094%, 67.471313%, 50.909424%)" stop-opacity="1"/>
<stop offset="0.65625" stop-color="rgb(29.956055%, 67.973328%, 50.473022%)" stop-opacity="1"/>
<stop offset="0.660156" stop-color="rgb(29.541016%, 68.473816%, 50.036621%)" stop-opacity="1"/>
<stop offset="0.664062" stop-color="rgb(29.125977%, 68.97583%, 49.60022%)" stop-opacity="1"/>
<stop offset="0.667969" stop-color="rgb(28.710938%, 69.476318%, 49.163818%)" stop-opacity="1"/>
<stop offset="0.671875" stop-color="rgb(28.297424%, 69.976807%, 48.727417%)" stop-opacity="1"/>
<stop offset="0.675781" stop-color="rgb(27.882385%, 70.477295%, 48.291016%)" stop-opacity="1"/>
<stop offset="0.679688" stop-color="rgb(27.467346%, 70.979309%, 47.854614%)" stop-opacity="1"/>
<stop offset="0.683594" stop-color="rgb(27.052307%, 71.479797%, 47.418213%)" stop-opacity="1"/>
<stop offset="0.6875" stop-color="rgb(26.637268%, 71.981812%, 46.981812%)" stop-opacity="1"/>
<stop offset="0.691406" stop-color="rgb(26.222229%, 72.4823%, 46.54541%)" stop-opacity="1"/>
<stop offset="0.695312" stop-color="rgb(25.80719%, 72.984314%, 46.109009%)" stop-opacity="1"/>
<stop offset="0.699219" stop-color="rgb(25.392151%, 73.484802%, 45.672607%)" stop-opacity="1"/>
<stop offset="0.703125" stop-color="rgb(24.977112%, 73.986816%, 45.236206%)" stop-opacity="1"/>
<stop offset="0.707031" stop-color="rgb(24.562073%, 74.487305%, 44.799805%)" stop-opacity="1"/>
<stop offset="0.710938" stop-color="rgb(24.14856%, 74.987793%, 44.363403%)" stop-opacity="1"/>
<stop offset="0.714844" stop-color="rgb(23.733521%, 75.488281%, 43.927002%)" stop-opacity="1"/>
<stop offset="0.71875" stop-color="rgb(23.318481%, 75.990295%, 43.490601%)" stop-opacity="1"/>
<stop offset="0.722656" stop-color="rgb(22.903442%, 76.490784%, 43.054199%)" stop-opacity="1"/>
<stop offset="0.726562" stop-color="rgb(22.488403%, 76.992798%, 42.617798%)" stop-opacity="1"/>
<stop offset="0.730469" stop-color="rgb(22.073364%, 77.493286%, 42.181396%)" stop-opacity="1"/>
<stop offset="0.734375" stop-color="rgb(21.658325%, 77.9953%, 41.744995%)" stop-opacity="1"/>
<stop offset="0.738281" stop-color="rgb(21.243286%, 78.495789%, 41.308594%)" stop-opacity="1"/>
<stop offset="0.742187" stop-color="rgb(20.828247%, 78.997803%, 40.872192%)" stop-opacity="1"/>
<stop offset="0.746094" stop-color="rgb(20.413208%, 79.498291%, 40.435791%)" stop-opacity="1"/>
<stop offset="0.75" stop-color="rgb(19.999695%, 79.998779%, 39.99939%)" stop-opacity="1"/>
<stop offset="1" stop-color="rgb(19.999695%, 79.998779%, 39.99939%)" stop-opacity="1"/>
</linearGradient>
</defs>
<g clip-path="url(#clip-0)">
<path fill-rule="nonzero" fill="url(#linear-pattern-0)" d="M -1914.109375 1642.878906 L 1642.878906 5787.109375 L 5787.109375 2230.121094 L 2230.121094 -1914.109375 Z M -1914.109375 1642.878906 "/>
</g>
<path fill-rule="evenodd" fill="rgb(100%, 100%, 99.609375%)" fill-opacity="1" d="M 1556.5 1069.699219 C 1552.199219 1069.699219 1548.601562 1073.300781 1548.601562 1077.601562 L 1548.601562 1233.601562 C 1548.601562 1237.898438 1552.199219 1241.5 1556.5 1241.5 L 2368.398438 1241.5 C 2372.699219 1241.5 2376.300781 1237.898438 2376.300781 1233.601562 L 2376.300781 1077.601562 C 2376.300781 1073.300781 2372.699219 1069.699219 2368.398438 1069.699219 Z M 2368.398438 1285.800781 L 1556.5 1285.800781 C 1527.699219 1285.800781 1504.300781 1262.398438 1504.300781 1233.601562 L 1504.300781 1077.601562 C 1504.300781 1048.800781 1527.699219 1025.398438 1556.5 1025.398438 L 2368.398438 1025.398438 C 2397.199219 1025.398438 2420.601562 1048.800781 2420.601562 1077.601562 L 2420.601562 1233.601562 C 2420.601562 1262.398438 2397.199219 1285.800781 2368.398438 1285.800781 Z M 2322 2271.5 L 1807.601562 2271.5 L 1807.601562 2393.800781 L 2421 2393.800781 C 2428.601562 2393.800781 2435.300781 2389.199219 2439.101562 2382.601562 C 2392 2355.199219 2351.800781 2317 2322 2271.5 Z M 2266 2097.898438 L 1807.601562 2097.898438 L 1807.601562 2227.300781 L 2297.5 2227.300781 C 2279.101562 2187.601562 2268.101562 2143.898438 2266 2097.898438 Z M 2303.800781 1924.199219 L 1807.601562 1924.199219 L 1807.601562 2053.601562 L 2266.800781 2053.601562 C 2270.601562 2007.300781 2283.601562 1963.601562 2303.800781 1924.199219 Z M 2442.398438 1750.601562 L 1807.601562 1750.601562 L 1807.601562 1880 L 2330.898438 1880 C 2360.300781 1839.199219 2398.398438 1805 2442.300781 1780.199219 Z M 2442.398438 1577 L 1807.601562 1577 L 1807.601562 1706.398438 L 2442.398438 1706.398438 Z M 1807.601562 1410.5 L 1807.601562 1532.699219 L 2442.398438 1532.699219 L 2442.398438 1433.800781 C 2442.398438 1420.898438 2432.800781 1410.5 2421.101562 1410.5 Z M 1482.601562 1532.699219 L 1763.300781 1532.699219 L 1763.300781 1410.5 L 1503.898438 1410.5 C 1492.101562 1410.5 1482.601562 1421 1482.601562 1433.800781 Z M 1482.601562 1706.398438 L 1763.300781 1706.398438 L 1763.300781 1577 L 1482.601562 1577 Z M 1482.601562 1880 L 1763.300781 1880 L 1763.300781 1750.601562 L 1482.601562 1750.601562 Z M 1482.601562 2053.601562 L 1763.300781 2053.601562 L 1763.300781 1924.199219 L 1482.601562 1924.199219 Z M 1482.601562 2227.199219 L 1763.300781 2227.199219 L 1763.300781 2097.800781 L 1482.601562 2097.800781 Z M 1763.300781 2393.699219 L 1763.300781 2271.398438 L 1482.601562 2271.398438 L 1482.601562 2370.300781 C 1482.601562 2382.898438 1492.398438 2393.601562 1503.898438 2393.601562 L 1763.300781 2393.601562 Z M 1228.5 2827.5 L 1228.5 2751.601562 C 1228.5 2190.398438 1228.300781 1629.199219 1228.300781 1068 C 1228.300781 984.601562 1168.5 914.898438 1089.601562 899.5 C 1092.898438 897.5 1096.898438 896.300781 1101.101562 896.300781 L 2569.398438 896.300781 C 2620.800781 896.300781 2741.101562 896.300781 2741.101562 1015.101562 L 2741.101562 1760.5 C 2701.300781 1744.5 2657.800781 1735.601562 2612.199219 1735.601562 C 2567.898438 1735.601562 2525.601562 1743.898438 2486.699219 1759.101562 L 2486.699219 1433.699219 C 2486.699219 1396.398438 2457.300781 1366.101562 2421.101562 1366.101562 L 1504 1366.101562 C 1467.800781 1366.101562 1438.398438 1396.398438 1438.398438 1433.699219 L 1438.398438 2370.300781 C 1438.398438 2407.601562 1467.800781 2437.898438 1504 2437.898438 L 2421 2437.898438 C 2446 2437.898438 2467.800781 2423.398438 2478.898438 2402.101562 C 2519.898438 2419.300781 2565 2428.800781 2612.199219 2428.800781 C 2657.699219 2428.800781 2701.199219 2420 2741.101562 2403.898438 L 2741.101562 2541.800781 L 2700.5 2569.199219 L 2624.398438 2517.699219 C 2616.898438 2512.601562 2607.101562 2512.601562 2599.601562 2517.699219 L 2523.5 2569.199219 L 2447.398438 2517.699219 C 2439.898438 2512.601562 2430.101562 2512.601562 2422.601562 2517.699219 L 2346.5 2569.199219 L 2270.398438 2517.699219 C 2262.898438 2512.601562 2253.101562 2512.601562 2245.601562 2517.699219 L 2169.5 2569.199219 L 2093.398438 2517.699219 C 2085.898438 2512.601562 2076.101562 2512.601562 2068.601562 2517.699219 L 1992.5 2569.199219 L 1916.398438 2517.699219 C 1908.898438 2512.601562 1899.101562 2512.601562 1891.601562 2517.699219 L 1815.5 2569.199219 L 1739.398438 2517.699219 C 1731.898438 2512.601562 1722.101562 2512.601562 1714.601562 2517.699219 L 1638.5 2569.199219 L 1562.398438 2517.699219 C 1555.601562 2513.101562 1546.898438 2512.699219 1539.601562 2516.5 C 1532.398438 2520.300781 1527.800781 2527.898438 1527.800781 2536 L 1527.800781 2827.300781 C 1527.800781 2927 1452.800781 2976.601562 1377.898438 2976.398438 C 1303 2976.300781 1228.5 2926.5 1228.5 2827.5 "/>
<path fill-rule="evenodd" fill="rgb(100%, 100%, 99.609375%)" fill-opacity="1" d="M 929.101562 1358.898438 L 1184 1358.898438 L 1184 1068.101562 C 1184 997.800781 1126.800781 940.699219 1056.601562 940.699219 C 986.300781 940.699219 929.199219 997.898438 929.199219 1068.101562 L 929.199219 1358.898438 L 929.101562 1358.898438 "/>
<path fill-rule="evenodd" fill="rgb(100%, 100%, 99.609375%)" fill-opacity="1" d="M 1505.5 2976.601562 L 2816.398438 2976.601562 C 2886.699219 2976.601562 2943.800781 2919.398438 2943.800781 2849.199219 L 2943.800781 2577.898438 L 2889.800781 2614.398438 C 2882.300781 2619.5 2872.5 2619.5 2865 2614.398438 L 2788.898438 2562.898438 C 2759.398438 2582.800781 2729.898438 2602.800781 2700.398438 2622.699219 C 2670.898438 2602.800781 2641.398438 2582.800781 2611.898438 2562.898438 L 2523.398438 2622.699219 C 2493.898438 2602.800781 2464.398438 2582.800781 2434.898438 2562.898438 L 2346.398438 2622.699219 C 2316.898438 2602.800781 2287.398438 2582.800781 2257.898438 2562.898438 L 2169.398438 2622.699219 C 2139.898438 2602.800781 2110.398438 2582.800781 2080.898438 2562.898438 L 1992.398438 2622.699219 C 1962.898438 2602.800781 1933.398438 2582.800781 1903.898438 2562.898438 L 1815.398438 2622.699219 C 1785.898438 2602.800781 1756.398438 2582.800781 1726.898438 2562.898438 L 1638.398438 2622.699219 C 1616.300781 2607.699219 1594.101562 2592.800781 1572 2577.800781 L 1572 2827.5 C 1571.800781 2889.699219 1546.699219 2942.101562 1505.5 2976.601562 "/>
<path fill-rule="evenodd" fill="rgb(100%, 100%, 99.609375%)" fill-opacity="1" d="M 2634.300781 2109.898438 L 2634.300781 2229.699219 C 2666.601562 2221.898438 2690.300781 2197.300781 2690.300781 2168.398438 C 2690.300781 2132.398438 2673.699219 2120 2634.300781 2109.898438 Z M 2590 2054.601562 L 2590 1934.800781 C 2557.699219 1942.601562 2534 1967.199219 2534 1996.101562 C 2534 2032.199219 2550.601562 2044.601562 2590 2054.601562 Z M 2612.199219 2325.5 C 2600 2325.5 2590.101562 2315.601562 2590.101562 2303.398438 L 2590.101562 2274.800781 C 2533.101562 2265.601562 2489.800781 2221.398438 2489.800781 2168.398438 C 2489.800781 2156.199219 2499.699219 2146.300781 2511.898438 2146.300781 C 2524.101562 2146.300781 2534 2156.199219 2534 2168.398438 C 2534 2197.398438 2557.699219 2221.898438 2590 2229.699219 L 2590 2100.199219 C 2543.199219 2089.699219 2489.699219 2070.199219 2489.699219 1996.199219 C 2489.699219 1943.199219 2533 1899 2590 1889.800781 L 2590 1861.199219 C 2590 1849 2599.898438 1839.101562 2612.101562 1839.101562 C 2624.300781 1839.101562 2634.199219 1849 2634.199219 1861.199219 L 2634.199219 1889.800781 C 2691.199219 1899 2734.5 1943.199219 2734.5 1996.199219 C 2734.5 2008.398438 2724.601562 2018.300781 2712.398438 2018.300781 C 2700.199219 2018.300781 2690.300781 2008.398438 2690.300781 1996.199219 C 2690.300781 1967.199219 2666.601562 1942.699219 2634.300781 1934.898438 L 2634.300781 2064.398438 C 2681.101562 2074.898438 2734.601562 2094.398438 2734.601562 2168.398438 C 2734.601562 2221.398438 2691.300781 2265.601562 2634.300781 2274.800781 L 2634.300781 2303.398438 C 2634.300781 2315.601562 2624.398438 2325.5 2612.199219 2325.5 Z M 2612.199219 1779.898438 C 2445.5 1779.898438 2309.898438 1915.5 2309.898438 2082.199219 C 2309.898438 2248.898438 2445.5 2384.5 2612.199219 2384.5 C 2778.898438 2384.5 2914.5 2248.898438 2914.5 2082.199219 C 2914.5 1915.5 2778.800781 1779.898438 2612.199219 1779.898438 "/>
</svg>
